PathFileType	4	(X/Y/Z)	C:/Users/opensim2020/Desktop/walking_exp_matlab/subject02_walking09_straight_04.trc	
DataRate	CameraRate	NumFrames	NumMarkers	Units	OrigDataRate	OrigDataStartFrame	OrigNumFrames	
100.00	100.00	4	42	mm	100.00	3149	285	
Frame#	Time	LFHD			RFHD			LBHD			RBHD			C7			T10			CLAV			STRN			RBAK			LSHO			LUPA			LELB			LFRM			LWRA			LWRB			LFIN			RSHO			RUPA			RELB			RFRM			RWRA			RWRB			RFIN			LASI			RASI			LPSI			RPSI			LTHI			LKNE			LTIB			LANK			LHEE			LTOE			RTHI			RKNE			RTIB			RANK			RHEE			RTOE			*39			*40			*41			
		X1	Y1	Z1	X2	Y2	Z2	X3	Y3	Z3	X4	Y4	Z4	X5	Y5	Z5	X6	Y6	Z6	X7	Y7	Z7	X8	Y8	Z8	X9	Y9	Z9	X10	Y10	Z10	X11	Y11	Z11	X12	Y12	Z12	X13	Y13	Z13	X14	Y14	Z14	X15	Y15	Z15	X16	Y16	Z16	X17	Y17	Z17	X18	Y18	Z18	X19	Y19	Z19	X20	Y20	Z20	X21	Y21	Z21	X22	Y22	Z22	X23	Y23	Z23	X24	Y24	Z24	X25	Y25	Z25	X26	Y26	Z26	X27	Y27	Z27	X28	Y28	Z28	X29	Y29	Z29	X30	Y30	Z30	X31	Y31	Z31	X32	Y32	Z32	X33	Y33	Z33	X34	Y34	Z34	X35	Y35	Z35	X36	Y36	Z36	X37	Y37	Z37	X38	Y38	Z38	X39	Y39	Z39	X40	Y40	Z40	X41	Y41	Z41	X42	Y42	Z42	

143	1.420	1479.04456	-179.00668	1722.68713	1337.37280	-163.44572	1699.30505	1503.35706	-50.68335	1647.62109	1364.27649	-22.94981	1623.56189	1434.93457	11.49090	1505.04602	1435.87671	67.86298	1230.55603	1444.07288	-125.49014	1434.39380	1437.93640	-176.28490	1262.56763	1375.42542	71.27546	1330.14465	1615.55762	-66.31301	1480.22192	1704.00232	-76.47134	1281.25732	1727.29004	-94.99304	1143.39478	1746.34998	-137.16489	1018.98993	1726.59924	-226.58038	914.23871	1754.33093	-178.50340	903.86108	1767.58777	-215.51942	851.74609	1246.68188	-63.96159	1464.01465	1173.03113	-22.01133	1270.07654	1172.27039	-21.78147	1121.77393	1161.40906	-38.68834	1002.08099	1188.15027	-75.96606	873.17725	1157.34583	-28.18518	871.98010	1159.02429	-59.24728	806.01868	1573.12756	-163.59978	961.29291	1315.46887	-170.35852	963.59290	1484.92517	43.41121	1009.31110	1369.98840	48.19003	1012.36316	1626.18909	-35.28815	663.93805	1604.89502	41.46751	479.38962	1604.00671	180.81662	342.20346	1580.07507	284.03156	141.21309	1525.96606	320.94656	131.82875	1599.59192	167.39261	32.35548	1235.33899	-157.59634	667.17786	1276.59033	-215.93852	467.35864	1270.46216	-206.23026	278.73901	1307.83789	-213.42204	87.59901	1367.79395	-188.41339	35.81403	1279.73633	-364.89917	38.81013	1398.54944	-67.29185	1785.22192	-3360.29590	2845.22803	1034.09277			 
144	1.430	1475.99304	-187.93033	1723.36548	1334.48145	-172.59979	1699.73364	1500.36938	-59.36979	1648.94763	1361.26318	-31.88657	1624.50891	1432.26221	3.14538	1505.61023	1432.95068	58.35423	1230.95520	1441.66528	-134.07745	1435.49158	1435.62598	-185.55815	1263.89697	1372.31641	61.83220	1330.33838	1613.02759	-74.39040	1481.26672	1700.69165	-83.06873	1281.95459	1723.24341	-99.97157	1143.88416	1742.22852	-139.78859	1018.65845	1722.43506	-227.41846	912.02539	1750.16052	-178.85898	902.77814	1763.47778	-214.80923	849.85809	1244.27271	-73.10133	1464.94202	1170.25403	-33.40508	1270.41882	1169.53687	-34.57486	1122.23022	1158.86548	-51.72160	1002.62128	1185.55872	-89.46997	873.86609	1154.09448	-41.87111	872.58398	1156.07141	-73.33510	806.66809	1569.09387	-173.22742	961.57837	1312.20264	-180.91684	965.49292	1482.07275	33.14508	1009.73303	1366.92188	37.86098	1013.07355	1624.09229	-47.05557	664.09521	1604.72437	27.43688	479.98169	1602.39966	169.85147	346.53445	1579.14636	277.04440	147.57079	1524.38684	313.03659	139.64691	1599.48010	166.90060	32.53822	1233.24438	-166.97797	667.31018	1274.87292	-223.70001	466.86255	1270.04089	-209.98430	278.54489	1308.14124	-213.89372	87.56205	1367.88489	-188.60330	35.99957	1279.84570	-365.93701	38.00092	1395.06213	-76.68851	1786.02722	-3360.24390	2845.12671	1034.16089			 
145	1.440	1473.15649	-196.89311	1724.45471	1331.58142	-181.71788	1700.23108	1497.45508	-67.94514	1650.53333	1358.40698	-40.69622	1625.67090	1429.78589	-5.10426	1506.48120	1429.94678	48.93145	1231.47107	1439.40466	-142.66812	1436.92236	1433.37292	-194.77238	1265.42505	1369.39868	52.55414	1330.85022	1610.59741	-82.23583	1482.51465	1697.62329	-89.64309	1282.97791	1719.09692	-104.81544	1144.60107	1737.79492	-142.34848	1018.47083	1718.65027	-227.77666	910.54694	1745.83521	-178.93076	901.98975	1759.18298	-213.75136	848.34363	1241.82703	-82.03411	1466.05078	1167.36670	-45.33101	1271.09167	1166.79346	-47.52912	1122.97180	1155.89941	-65.30807	1003.42950	1182.90955	-103.30779	874.71600	1150.69739	-56.25536	873.54163	1152.95569	-87.67004	807.59283	1565.17249	-183.28313	962.33832	1308.79749	-191.27580	967.37378	1479.10498	23.17554	1010.38232	1363.70813	27.71850	1013.89374	1622.13416	-59.01606	664.11572	1604.41455	12.33089	480.18802	1601.13379	157.46655	350.70645	1578.19006	269.09662	154.31543	1522.34729	303.73407	147.69125	1599.18384	166.22243	32.91285	1231.18298	-175.68210	667.62244	1273.77478	-229.85019	467.12259	1269.55298	-212.58063	278.79883	1308.40308	-214.52902	87.79111	1367.89709	-188.72569	36.08388	1280.07947	-366.76956	37.40226	1391.75269	-86.09357	1787.31726	-3360.15698	2845.20898	1034.03479			 
146	1.450	1470.35535	-205.81989	1725.45728	1328.77856	-190.73676	1700.80286	1494.71362	-76.45317	1652.26660	1355.65527	-49.39333	1627.03711	1427.17041	-13.46950	1507.42810	1426.81921	39.57235	1232.11609	1437.18872	-151.09093	1438.39136	1431.22510	-203.97157	1267.09814	1367.00818	43.76517	1331.76074	1608.19299	-89.95908	1483.93481	1694.50757	-96.06889	1284.04919	1714.90051	-109.46532	1145.48608	1733.52734	-144.56953	1018.69684	1714.39270	-227.90997	909.05585	1741.38794	-178.84048	901.44440	1754.57385	-212.49426	846.96051	1239.46167	-90.96468	1467.44128	1165.07178	-56.70242	1271.65088	1164.10449	-60.61462	1124.04346	1152.95874	-79.40029	1004.67603	1180.26343	-117.18541	875.88892	1147.30457	-70.55604	874.90594	1149.61853	-102.10520	808.88873	1561.08105	-192.88536	963.21893	1305.42188	-201.50589	969.21130	1475.98804	13.51605	1011.28497	1360.46838	17.67763	1014.98657	1620.09521	-71.30025	664.07397	1604.32373	-3.27776	480.31683	1599.77063	143.59169	354.18512	1576.64319	259.61844	160.83189	1520.06995	293.02902	155.61365	1598.47046	164.88434	33.44273	1228.94580	-183.94824	668.45905	1271.99048	-235.21709	466.76526	1269.04614	-214.44009	279.16943	1308.55835	-214.98462	88.04291	1367.95337	-188.75378	36.10869	1280.34863	-367.33646	37.02167	1388.32361	-95.53814	1788.37207	-3360.17773	2845.20557	1033.98059			 
